<svg xmlns="http://www.w3.org/2000/svg" xmlns:xlink="http://www.w3.org/1999/xlink" fill="none" version="1.1" width="44"
  height="44" viewBox="0 0 44 44">
  <defs>
    <mask id="master_svg0_1702_58" style="mask-type:alpha" maskUnits="userSpaceOnUse">
      <g>
        <rect x="12" y="6" width="20" height="24" rx="0" fill="#FFFFFF" fill-opacity="1" />
      </g>
    </mask>
  </defs>
  <g>
    <g>
      <g>
        <g>
          <g>
            <path
              d="M8,44L36,44C40.42,44,44,40.42,44,36L44,8C44,3.58,40.42,0,36,0L8,0C3.58,0,0,3.58,0,8L0,36C0,40.42,3.58,44,8,44Z"
              fill-rule="evenodd" fill="#0EC5D9" fill-opacity="1" />
          </g>
        </g>
        <g>
          <g mask="url(#master_svg0_1702_58)">
            <g>
              <g>
                <g>
                  <path
                    d="M29.51029559539795,29.995925712890624C28.14163559539795,29.995925712890624,27.02905559539795,28.912235712890624,27.02905559539795,27.577135712890623C27.02905559539795,26.242035712890626,28.14163559539795,25.158355712890625,29.51029559539795,25.158355712890625C30.887775595397947,25.158355712890625,32.00035559539795,26.242035712890626,32.00035559539795,27.577135712890623C32.00035559539795,28.912235712890624,30.887775595397947,29.995925712890624,29.51029559539795,29.995925712890624Z"
                    fill-rule="evenodd" fill="#FFFFFF" fill-opacity="1" />
                </g>
                <g>
                  <path
                    d="M26.966900000000003,10.83757C24.1943,10.83757,21.942610000000002,13.03961,21.942610000000002,15.73582L21.942610000000002,15.79651L29.5188,15.79651C30.8874,15.79651,32,16.880200000000002,32,18.2153C32,19.5504,30.8874,20.6341,29.5188,20.6341L21.942610000000002,20.6341L21.942610000000002,20.6948C21.942610000000002,21.787100000000002,21.74834,22.8448,21.40397,23.8244C20.441499999999998,26.5813,18.242829999999998,28.7834,15.46137,29.8064C15.452539999999999,29.8151,15.43488,29.8151,15.42605,29.8237C15.40839,29.8237,15.39073,29.8324,15.36424,29.8411C15.09051,29.9451,14.79912,29.9971,14.49007,29.9971C13.11258,29.9971,12,28.9134,12,27.5783C12,26.5293,12.688742,25.6364,13.65121,25.2983C15.58499,24.6134,16.9713,22.8101,16.9713,20.6948L16.9713,20.6341L14.48124,20.6341C13.11258,20.6341,12,19.5504,12,18.2153C12,16.880200000000002,13.11258,15.79651,14.48124,15.79651L16.9713,15.79651L16.9713,15.73582C16.9713,10.36942,21.45695,6,26.966900000000003,6L29.5099,6C30.8874,6,32,7.08368,32,8.41878C32,9.75388,30.8874,10.83757,29.5188,10.83757L26.966900000000003,10.83757Z"
                    fill-rule="evenodd" fill="#FFFFFF" fill-opacity="1" />
                </g>
              </g>
            </g>
          </g>
        </g>
      </g>
      <g>
        <path
          d="M14.44899,32L12.81633,32C12.365484,32,12,32.348223,12,32.777778L12,38.22222C12,38.65178,12.365484,39,12.81633,39L14.44899,39C16.477800000000002,39,18.12248,37.433,18.12248,35.5C18.12248,33.567,16.477800000000002,32,14.44899,32ZM14.44899,37.44445L13.63266,37.44445L13.63266,33.55556L14.44899,33.55556C15.57611,33.55556,16.48982,34.42611,16.48982,35.5C16.48982,36.57389,15.57611,37.44445,14.44899,37.44445ZM31.7481,36.96708C32.0738,37.26403,32.0852,37.7563,31.7736,38.06667C31.1991,38.65587,30.3952,38.99349,29.5511,39C27.7501,39,26.285800000000002,37.42986,26.285800000000002,35.5C26.285800000000002,33.57014,27.7501,32,29.5511,32C30.3952,32.00651402,31.1991,32.344127,31.7736,32.933334C32.078199999999995,33.24466,32.0636,33.73145,31.7408,34.02569C31.418,34.31993,30.9069,34.31232,30.594,34.00861C30.3262,33.72783,29.9492,33.56405,29.5511,33.55556C28.6511,33.55556,27.9184,34.43056,27.9184,35.5C27.9184,36.56945,28.6511,37.44445,29.5511,37.44445C29.9492,37.43595,30.3262,37.27217,30.594,36.99139C30.9056,36.68107,31.4223,36.67019,31.7481,36.96708ZM22.2041,32C20.403100000000002,32,18.93881,33.57014,18.93881,35.5C18.93881,37.42986,20.403100000000002,39,22.2041,39C24.005200000000002,39,25.4695,37.42986,25.4695,35.5C25.4695,33.57014,24.005200000000002,32,22.2041,32ZM22.2041,37.44445C21.30413,37.44445,20.571469999999998,36.56945,20.571469999999998,35.5C20.571469999999998,34.43056,21.30413,33.55556,22.2041,33.55556C23.104100000000003,33.55556,23.8368,34.43056,23.8368,35.5C23.8368,36.56945,23.104100000000003,37.44445,22.2041,37.44445Z"
          fill="#F8FEFF" fill-opacity="1" />
      </g>
    </g>
  </g>
</svg>